<?xml version="1.0" encoding="UTF-8" standalone="no"?>
<svg
   height="48px"
   viewBox="0 -960 960 960"
   width="48px"
   fill="#f87171"
   version="1.1"
   id="svg1"
   xmlns="http://www.w3.org/2000/svg"
   xmlns:svg="http://www.w3.org/2000/svg">
  <defs
     id="defs1" />
  <path
     id="path4"
     style="fill:#f87171;fill-opacity:1"
     d="m 480,-360 q 50,0 85,-35 35,-35 35,-85 0,-50 -35,-85 -35,-35 -85,-35 -50,0 -85,35 -35,35 -35,85 0,50 35,85 35,35 85,35 z m 0,280 Q 397,-80 324,-111.5 251,-143 197,-197 143,-251 111.5,-324 80,-397 80,-480 q 0,-83 31.5,-156 31.5,-73 85.5,-127 54,-54 127,-85.5 73,-31.5 156,-31.5 83,0 156,31.5 73,31.5 127,85.5 54,54 85.5,127 31.5,73 31.5,156 0,83 -31.5,156 -31.5,73 -85.5,127 -54,54 -127,85.5 Q 563,-80 480,-80 Z" />
  <path
     d="m 650,-539 150,-62 Q 772,-669 720.5,-720.5 669,-772 601,-800 l -61,150 q 38,13 66,41.5 28,28.5 44,69.5 z"
     id="path6"
     style="fill:#f5f5f4;fill-opacity:1" />
  <path
     d="m 601,-160 q 69,-28 120,-79.5 51,-51.5 79,-119.5 l -150,-62 q -15,42 -44.5,70.5 Q 576,-322 538,-310 Z"
     id="path5"
     style="fill:#f5f5f4;fill-opacity:1" />
  <path
     d="m 309,-538 q 16,-41 45,-70 29,-29 67,-42 l -60,-150 q -75,31 -127,83.5 -52,52.5 -74,118.5 z"
     id="path3"
     style="fill:#f5f5f4;fill-opacity:1" />
  <path
     d="m 359,-160 63,-150 Q 384,-323 354.5,-351.5 325,-380 310,-421 l -150,60 q 31,71 82,123 51,52 117,78 z"
     id="path2"
     style="fill:#f5f5f4;fill-opacity:1" />
</svg>
